<svg width="24" height="24" viewBox="0 0 24 24" fill="none" xmlns="http://www.w3.org/2000/svg">
<path opacity="0.2" d="M19.8557 12.4783C19.8838 12.1595 19.8557 11.522 19.8557 11.522L21.4119 9.45015C21.1941 8.64332 20.8727 7.86812 20.4557 7.1439L17.8963 6.77827C17.6775 6.54702 17.4525 6.32202 17.2213 6.10327L16.8557 3.5439C16.1319 3.12592 15.3566 2.80444 14.5494 2.58765L12.4775 4.1439C12.1594 4.11577 11.8394 4.11577 11.5213 4.1439L9.44941 2.58765C8.64259 2.80545 7.86739 3.12688 7.14316 3.5439L6.77754 6.10327C6.54629 6.32202 6.32129 6.54702 6.10254 6.77827L3.54316 7.1439C3.12519 7.86765 2.80371 8.64298 2.58691 9.45015L4.14316 11.522C4.12441 11.8408 4.14316 12.4783 4.14316 12.4783L2.58691 14.5501C2.80472 15.357 3.12615 16.1322 3.54316 16.8564L6.10254 17.222C6.32129 17.4595 6.54629 17.6845 6.77754 17.897L7.14316 20.4564C7.86692 20.8744 8.64225 21.1958 9.44941 21.4126L11.5213 19.8564C11.8394 19.8845 12.1594 19.8845 12.4775 19.8564L14.5494 21.4126C15.3562 21.1948 16.1314 20.8734 16.8557 20.4564L17.2213 17.897C17.4557 17.6814 17.8963 17.222 17.8963 17.222L20.4557 16.8564C20.8736 16.1326 21.1951 15.3573 21.4119 14.5501L19.8557 12.4783ZM11.9994 16.5001C11.1094 16.5001 10.2394 16.2362 9.49935 15.7418C8.75933 15.2473 8.18255 14.5445 7.84196 13.7222C7.50136 12.9 7.41225 11.9952 7.58588 11.1222C7.75951 10.2493 8.1881 9.4475 8.81743 8.81817C9.44677 8.18883 10.2486 7.76025 11.1215 7.58661C11.9944 7.41298 12.8992 7.50209 13.7215 7.84269C14.5438 8.18328 15.2466 8.76006 15.741 9.50008C16.2355 10.2401 16.4994 11.1101 16.4994 12.0001C16.4994 13.1936 16.0253 14.3382 15.1814 15.1821C14.3375 16.026 13.1929 16.5001 11.9994 16.5001Z" fill="#7C7C7B"/>
<path d="M12 16.5C14.4853 16.5 16.5 14.4853 16.5 12C16.5 9.51472 14.4853 7.5 12 7.5C9.51472 7.5 7.5 9.51472 7.5 12C7.5 14.4853 9.51472 16.5 12 16.5Z" stroke="#7C7C7B" stroke-width="1.5" stroke-linecap="round" stroke-linejoin="round"/>
<path d="M17.2213 6.10327C17.4588 6.32202 17.6838 6.54702 17.8963 6.77827L20.4557 7.1439C20.8727 7.86812 21.1941 8.64332 21.4119 9.45015L19.8557 11.522C19.8557 11.522 19.8838 12.1595 19.8557 12.4783L21.4119 14.5501C21.1951 15.3573 20.8736 16.1326 20.4557 16.8564L17.8963 17.222C17.8963 17.222 17.4557 17.6814 17.2213 17.897L16.8557 20.4564C16.1314 20.8734 15.3562 21.1948 14.5494 21.4126L12.4775 19.8564C12.1594 19.8845 11.8394 19.8845 11.5213 19.8564L9.44941 21.4126C8.64225 21.1958 7.86692 20.8744 7.14316 20.4564L6.77754 17.897C6.54629 17.6783 6.32129 17.4533 6.10254 17.222L3.54316 16.8564C3.12615 16.1322 2.80472 15.357 2.58691 14.5501L4.14316 12.4783C4.14316 12.4783 4.12441 11.8408 4.14316 11.522L2.58691 9.45015C2.80371 8.64298 3.12519 7.86765 3.54316 7.1439L6.10254 6.77827C6.32129 6.54702 6.54629 6.32202 6.77754 6.10327L7.14316 3.5439C7.86739 3.12688 8.64259 2.80545 9.44941 2.58765L11.5213 4.1439C11.8394 4.11577 12.1594 4.11577 12.4775 4.1439L14.5494 2.58765C15.3566 2.80444 16.1319 3.12592 16.8557 3.5439L17.2213 6.10327Z" stroke="#7C7C7B" stroke-width="1.5" stroke-linecap="round" stroke-linejoin="round"/>
</svg>
