<svg width="192" height="40" viewBox="0 0 192 40" fill="none" xmlns="http://www.w3.org/2000/svg">
<path d="M167.624 13.9707V34.6224H162.452V32.0129C161.792 32.9076 160.924 33.6159 159.848 34.1378C158.797 34.6348 157.648 34.8833 156.401 34.8833C154.811 34.8833 153.405 34.5478 152.183 33.8768C150.96 33.181 149.995 32.1745 149.285 30.8573C148.601 29.5154 148.259 27.9249 148.259 26.0858V13.9707H153.393V25.3403C153.393 26.9805 153.797 28.2479 154.604 29.1426C155.41 30.0124 156.511 30.4473 157.904 30.4473C159.323 30.4473 160.435 30.0124 161.242 29.1426C162.049 28.2479 162.452 26.9805 162.452 25.3403V13.9707H167.624Z" fill="#4F5EEE"/>
<path d="M175.991 16.9902C176.651 15.9961 177.556 15.1884 178.705 14.5671C179.878 13.9458 181.211 13.6352 182.703 13.6352C184.439 13.6352 186.003 14.0701 187.397 14.9399C188.815 15.8097 189.928 17.0523 190.735 18.6676C191.566 20.2581 191.982 22.1096 191.982 24.222C191.982 26.3344 191.566 28.2107 190.735 29.8509C189.928 31.4662 188.815 32.7212 187.397 33.6159C186.003 34.5105 184.439 34.9579 182.703 34.9579C181.187 34.9579 179.854 34.6596 178.705 34.0632C177.58 33.4419 176.675 32.6467 175.991 31.6774V34.6224H170.856V7.03711H175.991V16.9902ZM186.737 24.222C186.737 22.9794 186.48 21.9108 185.967 21.0161C185.478 20.0966 184.818 19.4008 183.986 18.9286C183.179 18.4564 182.299 18.2203 181.346 18.2203C180.416 18.2203 179.536 18.4688 178.705 18.9659C177.898 19.438 177.238 20.1339 176.724 21.0534C176.235 21.9729 175.991 23.0539 175.991 24.2965C175.991 25.5391 176.235 26.6201 176.724 27.5397C177.238 28.4592 177.898 29.1674 178.705 29.6645C179.536 30.1366 180.416 30.3727 181.346 30.3727C182.299 30.3727 183.179 30.1242 183.986 29.6272C184.818 29.1302 185.478 28.4219 185.967 27.5024C186.48 26.5829 186.737 25.4894 186.737 24.222Z" fill="#4F5EEE"/>
<path d="M129.275 7.04199V34.6272H124.14V7.04199H129.275Z" fill="#4F5EEE"/>
<path d="M145.382 7.04199V34.6272H140.248V7.04199H145.382Z" fill="#4F5EEE"/>
<path d="M145.369 18.3765V23.33H124.14V18.3765H145.369Z" fill="#A6309A"/>
<path d="M28.74 35V21.88C28.74 20.4 28.3733 19.2467 27.64 18.42C26.9067 17.58 25.9133 17.16 24.66 17.16C23.8867 17.16 23.1933 17.34 22.58 17.7C21.9667 18.0467 21.48 18.5667 21.12 19.26C20.76 19.94 20.58 20.7533 20.58 21.7L18.44 20.44C18.4267 18.9467 18.76 17.6333 19.44 16.5C20.1333 15.3533 21.0667 14.46 22.24 13.82C23.4133 13.18 24.72 12.86 26.16 12.86C28.5467 12.86 30.3733 13.58 31.64 15.02C32.92 16.4467 33.56 18.3267 33.56 20.66V35H28.74ZM2.76 35V13.4H7.02V20.1H7.62V35H2.76ZM15.78 35V21.94C15.78 20.4333 15.4133 19.26 14.68 18.42C13.9467 17.58 12.9467 17.16 11.68 17.16C10.4533 17.16 9.46667 17.58 8.72 18.42C7.98667 19.26 7.62 20.3533 7.62 21.7L5.46 20.26C5.46 18.86 5.80667 17.6 6.5 16.48C7.19333 15.36 8.12667 14.48 9.3 13.84C10.4867 13.1867 11.8133 12.86 13.28 12.86C14.8933 12.86 16.24 13.2067 17.32 13.9C18.4133 14.58 19.2267 15.5133 19.76 16.7C20.3067 17.8733 20.58 19.2 20.58 20.68V35H15.78ZM46.8766 35.62C45.2766 35.62 43.9566 35.3533 42.9166 34.82C41.8766 34.2867 41.0499 33.6067 40.4366 32.78C39.8232 31.9533 39.3699 31.0733 39.0766 30.14C38.7832 29.2067 38.5899 28.3267 38.4966 27.5C38.4166 26.66 38.3766 25.98 38.3766 25.46V13.4H43.2566V23.8C43.2566 24.4667 43.3032 25.22 43.3966 26.06C43.4899 26.8867 43.7032 27.6867 44.0366 28.46C44.3832 29.22 44.8899 29.8467 45.5566 30.34C46.2366 30.8333 47.1499 31.08 48.2966 31.08C48.9099 31.08 49.5166 30.98 50.1166 30.78C50.7166 30.58 51.2566 30.24 51.7366 29.76C52.2299 29.2667 52.6232 28.5933 52.9166 27.74C53.2099 26.8867 53.3566 25.8067 53.3566 24.5L56.2166 25.72C56.2166 27.56 55.8566 29.2267 55.1366 30.72C54.4299 32.2133 53.3832 33.4067 51.9966 34.3C50.6099 35.18 48.9032 35.62 46.8766 35.62ZM53.9366 35V28.3H53.3566V13.4H58.1966V35H53.9366ZM72.1556 35.6C69.489 35.6 67.3223 35 65.6556 33.8C63.989 32.6 62.9756 30.9133 62.6156 28.74L67.5356 27.98C67.789 29.0467 68.349 29.8867 69.2156 30.5C70.0823 31.1133 71.1756 31.42 72.4956 31.42C73.6556 31.42 74.549 31.1933 75.1756 30.74C75.8156 30.2733 76.1356 29.64 76.1356 28.84C76.1356 28.3467 76.0156 27.9533 75.7756 27.66C75.549 27.3533 75.0423 27.06 74.2556 26.78C73.469 26.5 72.2623 26.1467 70.6356 25.72C68.8223 25.24 67.3823 24.7267 66.3156 24.18C65.249 23.62 64.4823 22.96 64.0156 22.2C63.549 21.44 63.3156 20.52 63.3156 19.44C63.3156 18.0933 63.669 16.92 64.3756 15.92C65.0823 14.92 66.069 14.1533 67.3356 13.62C68.6023 13.0733 70.0956 12.8 71.8156 12.8C73.4956 12.8 74.9823 13.06 76.2756 13.58C77.5823 14.1 78.6356 14.84 79.4356 15.8C80.2356 16.76 80.729 17.8867 80.9156 19.18L75.9956 20.06C75.8756 19.14 75.4556 18.4133 74.7356 17.88C74.029 17.3467 73.0823 17.0467 71.8956 16.98C70.7623 16.9133 69.849 17.0867 69.1556 17.5C68.4623 17.9 68.1156 18.4667 68.1156 19.2C68.1156 19.6133 68.2556 19.9667 68.5356 20.26C68.8156 20.5533 69.3756 20.8467 70.2156 21.14C71.069 21.4333 72.3356 21.7933 74.0156 22.22C75.7356 22.66 77.109 23.1667 78.1356 23.74C79.1756 24.3 79.9223 24.9733 80.3756 25.76C80.8423 26.5467 81.0756 27.5 81.0756 28.62C81.0756 30.7933 80.2823 32.5 78.6956 33.74C77.1223 34.98 74.9423 35.6 72.1556 35.6ZM85.8563 10.12V5.7H90.6763V10.12H85.8563ZM85.8563 35V13.4H90.6763V35H85.8563ZM106.047 35.6C103.821 35.6 101.921 35.1067 100.347 34.12C98.7739 33.12 97.5672 31.76 96.7272 30.04C95.9005 28.32 95.4805 26.3733 95.4672 24.2C95.4805 21.9867 95.9139 20.0267 96.7672 18.32C97.6339 16.6 98.8605 15.2533 100.447 14.28C102.034 13.2933 103.921 12.8 106.107 12.8C108.561 12.8 110.634 13.42 112.327 14.66C114.034 15.8867 115.147 17.5667 115.667 19.7L110.867 21C110.494 19.84 109.874 18.94 109.007 18.3C108.141 17.6467 107.154 17.32 106.047 17.32C104.794 17.32 103.761 17.62 102.947 18.22C102.134 18.8067 101.534 19.62 101.147 20.66C100.761 21.7 100.567 22.88 100.567 24.2C100.567 26.2533 101.027 27.9133 101.947 29.18C102.867 30.4467 104.234 31.08 106.047 31.08C107.327 31.08 108.334 30.7867 109.067 30.2C109.814 29.6133 110.374 28.7667 110.747 27.66L115.667 28.76C115.001 30.96 113.834 32.6533 112.167 33.84C110.501 35.0133 108.461 35.6 106.047 35.6Z" fill="white"/>
</svg>
