<svg width="25" height="24" viewBox="0 0 25 24" fill="none" xmlns="http://www.w3.org/2000/svg">
<path opacity="0.2" d="M15.6602 14.1751C14.4051 13.9795 13.2447 13.3901 12.3465 12.4919C11.4483 11.5937 10.8589 10.4333 10.6633 9.17822L3.47269 18.9845C3.3646 19.1284 3.3126 19.3067 3.3264 19.4861C3.3402 19.6655 3.41887 19.8338 3.54769 19.9595L4.87894 21.2907C5.0046 21.4195 5.17287 21.4982 5.3523 21.512C5.53173 21.5258 5.71005 21.4738 5.85394 21.3657L15.6602 14.1751Z" fill="#A6309A"/>
<path d="M16.5884 14.25C19.9021 14.25 22.5884 11.5637 22.5884 8.25C22.5884 4.93629 19.9021 2.25 16.5884 2.25C13.2747 2.25 10.5884 4.93629 10.5884 8.25C10.5884 11.5637 13.2747 14.25 16.5884 14.25Z" stroke="#A6309A" stroke-width="2" stroke-linecap="round" stroke-linejoin="round"/>
<path d="M20.8353 12.4967L12.3416 4.00293" stroke="#A6309A" stroke-width="2" stroke-linecap="round" stroke-linejoin="round"/>
<path d="M10.2134 14.625L9.08838 15.75" stroke="#A6309A" stroke-width="2" stroke-linecap="round" stroke-linejoin="round"/>
<path d="M10.6633 9.17822L3.47269 18.9845C3.3646 19.1284 3.3126 19.3067 3.3264 19.4861C3.3402 19.6655 3.41887 19.8338 3.54769 19.9595L4.87894 21.2907C5.0046 21.4195 5.17287 21.4982 5.3523 21.512C5.53173 21.5258 5.71005 21.4738 5.85394 21.3657L15.6602 14.1751" stroke="#A6309A" stroke-width="2" stroke-linecap="round" stroke-linejoin="round"/>
</svg>
