<svg width="33" height="32" viewBox="0 0 33 32" fill="none" xmlns="http://www.w3.org/2000/svg">
<path opacity="0.2" d="M11.5 28C14.2614 28 16.5 25.7614 16.5 23C16.5 20.2386 14.2614 18 11.5 18C8.73858 18 6.5 20.2386 6.5 23C6.5 25.7614 8.73858 28 11.5 28Z" fill="#4D5AE4"/>
<path d="M11.5 28C14.2614 28 16.5 25.7614 16.5 23C16.5 20.2386 14.2614 18 11.5 18C8.73858 18 6.5 20.2386 6.5 23C6.5 25.7614 8.73858 28 11.5 28Z" stroke="#4D5AE4" stroke-width="2" stroke-linecap="round" stroke-linejoin="round"/>
<path d="M16.5 23V5L26.5 8V14L16.5 11" stroke="#4D5AE4" stroke-width="2" stroke-linecap="round" stroke-linejoin="round"/>
</svg>
