<svg width="25" height="24" viewBox="0 0 25 24" fill="none" xmlns="http://www.w3.org/2000/svg">
<path opacity="0.2" d="M12.8384 3C11.0584 3 9.31829 3.52784 7.83825 4.51677C6.35821 5.50571 5.20466 6.91131 4.52347 8.55585C3.84228 10.2004 3.66405 12.01 4.01132 13.7558C4.35858 15.5016 5.21575 17.1053 6.47442 18.364C7.73309 19.6226 9.33674 20.4798 11.0826 20.8271C12.8284 21.1743 14.638 20.9961 16.2825 20.3149C17.9271 19.6337 19.3327 18.4802 20.3216 17.0001C21.3105 15.5201 21.8384 13.78 21.8384 12C21.8384 9.61305 20.8902 7.32387 19.2023 5.63604C17.5145 3.94821 15.2253 3 12.8384 3V3ZM11.3384 15V9L15.8384 12L11.3384 15Z" fill="#A6309A"/>
<path d="M12.8384 21C17.8089 21 21.8384 16.9706 21.8384 12C21.8384 7.02944 17.8089 3 12.8384 3C7.86782 3 3.83838 7.02944 3.83838 12C3.83838 16.9706 7.86782 21 12.8384 21Z" stroke="#A6309A" stroke-width="2" stroke-miterlimit="10"/>
<path d="M15.8384 12L11.3384 9V15L15.8384 12Z" stroke="#A6309A" stroke-width="2" stroke-linecap="round" stroke-linejoin="round"/>
</svg>
