<svg width="25" height="24" viewBox="0 0 25 24" fill="none" xmlns="http://www.w3.org/2000/svg">
<path opacity="0.2" d="M17.3384 20.25C18.581 20.25 19.5884 19.2426 19.5884 18C19.5884 16.7574 18.581 15.75 17.3384 15.75C16.0957 15.75 15.0884 16.7574 15.0884 18C15.0884 19.2426 16.0957 20.25 17.3384 20.25Z" fill="#A6309A"/>
<path d="M4.58838 6H21.0884" stroke="#A6309A" stroke-width="2" stroke-linecap="round" stroke-linejoin="round"/>
<path d="M4.58838 12H15.8384" stroke="#A6309A" stroke-width="2" stroke-linecap="round" stroke-linejoin="round"/>
<path d="M4.58838 18H11.3384" stroke="#A6309A" stroke-width="2" stroke-linecap="round" stroke-linejoin="round"/>
<path d="M17.3384 20.25C18.581 20.25 19.5884 19.2426 19.5884 18C19.5884 16.7574 18.581 15.75 17.3384 15.75C16.0957 15.75 15.0884 16.7574 15.0884 18C15.0884 19.2426 16.0957 20.25 17.3384 20.25Z" stroke="#A6309A" stroke-width="2" stroke-linecap="round" stroke-linejoin="round"/>
<path d="M19.5884 18V10.5L23.3384 11.625" stroke="#A6309A" stroke-width="2" stroke-linecap="round" stroke-linejoin="round"/>
</svg>
