<svg width="25" height="24" viewBox="0 0 25 24" fill="none" xmlns="http://www.w3.org/2000/svg">
<path opacity="0.2" d="M3.08838 5.625H15.0884C15.884 5.625 16.6471 5.94107 17.2097 6.50368C17.7723 7.06629 18.0884 7.82935 18.0884 8.625V17.625C18.0884 17.8239 18.0094 18.0147 17.8687 18.1553C17.7281 18.296 17.5373 18.375 17.3384 18.375H5.33838C4.54273 18.375 3.77967 18.0589 3.21706 17.4963C2.65445 16.9337 2.33838 16.1706 2.33838 15.375V6.375C2.33838 6.17609 2.4174 5.98532 2.55805 5.84467C2.6987 5.70402 2.88947 5.625 3.08838 5.625Z" fill="#A6309A"/>
<path d="M3.08838 5.625H15.0884C15.884 5.625 16.6471 5.94107 17.2097 6.50368C17.7723 7.06629 18.0884 7.82935 18.0884 8.625V17.625C18.0884 17.8239 18.0094 18.0147 17.8687 18.1553C17.7281 18.296 17.5373 18.375 17.3384 18.375H5.33838C4.54273 18.375 3.77967 18.0589 3.21706 17.4963C2.65445 16.9337 2.33838 16.1706 2.33838 15.375V6.375C2.33838 6.17609 2.4174 5.98532 2.55805 5.84467C2.6987 5.70402 2.88947 5.625 3.08838 5.625V5.625Z" stroke="#A6309A" stroke-width="2" stroke-linecap="round" stroke-linejoin="round"/>
<path d="M18.0884 10.5L23.3384 7.5V16.5L18.0884 13.5" stroke="#A6309A" stroke-width="2" stroke-linecap="round" stroke-linejoin="round"/>
</svg>
